<?xml version="1.0" encoding="utf-8"?>
<?xml-stylesheet type="text/xsl" href="rss1.xsl"?>
<rss version="2.0" xmlns:atom="http://www.w3.org/2005/Atom" xmlns:content="http://purl.org/rss/1.0/modules/content/" xmlns:dc="http://purl.org/dc/elements/1.1/" xmlns:media="http://search.yahoo.com/mrss/">
<channel>
 <title>Getty</title>
 <link>http://www.gettyimg.com/</link>
 <atom:link href="http://www.gettyimg.com/" rel="self" type="application/rss+xml" />

 
                <item>
                <title><![CDATA[【Singles (lossy)】[REQUEST] TWICE - Dance Again (Dolby Atmos)]]></title>
                <link><![CDATA[https://sharemania.us/threads/request-twice-dance-again-dolby-atmos.234735/]]></link>
                <description><![CDATA[<article>
<blockquote class="messageText SelectQuoteContainer ugc baseHtml">
plissss, someone upload the dolby atmos versions of the song
<div class="messageTextEndMarker">&nbsp;</div>
</blockquote>
</article>]]></description>
                <author><![CDATA[PicaFresa121]]></author>
                </item>

                
                <item>
                <title><![CDATA[【HD Live Performances】WEB-DL - Por Siempre RBD 2023 VIX.WEB-DL.H264.E-AC3.1080p-Tknobi]]></title>
                <link><![CDATA[https://sharemania.us/threads/por-siempre-rbd-2023-vix-web-dl-h264-e-ac3-1080p-tknobi.234736/]]></link>
                <description><![CDATA[<article>
<blockquote class="messageText SelectQuoteContainer ugc baseHtml">
<div style="text-align: center"><img src="https://i.postimg.cc/W1tVNXX8/Por-siempre-RBD-2023-VIX-WEB-DL-H264-E-AC3-1080p-Tknobi-mkv.jpg" class="bbCodeImage LbImage" alt="[​IMG]" data-url="https://i.postimg.cc/W1tVNXX8/Por-siempre-RBD-2023-VIX-WEB-DL-H264-E-AC3-1080p-Tknobi-mkv.jpg" style=""><br>
​</div>
<div class="ToggleTriggerAnchor bbCodeSpoilerContainer">
<button type="button" class="button bbCodeSpoilerButton ToggleTrigger Tooltip JsOnly" data-target="> .SpoilerTarget"><span>Spoiler: <span class="SpoilerTitle">MediaInfo</span></span></button>
<div class="SpoilerTarget bbCodeSpoilerText">Format : Matroska<br>
Format version : Version 4<br>
File size : 8.80 GiB<br>
Duration : 1 h 42 min<br>
Overall bit rate : 12.3 Mb/s<br>
Movie name : Tknobi<br>
Writing application : mkvmerge v66.0.0 ('Josie') 64-bit<br>
Writing library : libebml v1.4.2 + libmatroska v1.6.4<br>
<br>
Video<br>
ID : 1<br>
Format : AVC<br>
Format/Info : Advanced Video Codec<br>
Format profile : High@L4<br>
Format settings : CABAC / 4 Ref Frames<br>
Format settings, CABAC : Yes<br>
Format settings, Reference frames : 4 frames<br>
Codec ID : V_MPEG4/ISO/AVC<br>
Duration : 1 h 42 min<br>
Bit rate : 11.9 Mb/s<br>
Width : 1 920 pixels<br>
Height : 1 080 pixels<br>
Display aspect ratio : 16:9<br>
Frame rate mode : Constant<br>
Frame rate : 30.000 FPS<br>
Color space : YUV<br>
Chroma subsampling : 4:2:0<br>
Bit depth : 8 bits<br>
Scan type : Progressive<br>
Bits/(Pixel*Frame) : 0.191<br>
Stream size : 8.48 GiB (96%)<br>
Language : Spanish<br>
Default : Yes<br>
Forced : No<br>
Color range : Limited<br>
Color primaries : BT.709<br>
Transfer characteristics : BT.709<br>
Matrix coefficients : BT.709<br>
<br>
Audio #1<br>
ID : 2<br>
Format : AC-3<br>
Format/Info : Audio Coding 3<br>
Commercial name : Dolby Digital<br>
Codec ID : A_AC3<br>
Duration : 1 h 42 min<br>
Bit rate mode : Constant<br>
Bit rate : 224 kb/s<br>
Channel(s) : 2 channels<br>
Channel layout : L R<br>
Sampling rate : 48.0 kHz<br>
Frame rate : 31.250 FPS (1536 SPF)<br>
Compression mode : Lossy<br>
Stream size : 164 MiB (2%)<br>
Language : Spanish<br>
Service kind : Complete Main<br>
Default : Yes<br>
Forced : No<br>
<br>
Audio #2<br>
ID : 3<br>
Format : E-AC-3<br>
Format/Info : Enhanced AC-3<br>
Commercial name : Dolby Digital Plus<br>
Codec ID : A_EAC3<br>
Duration : 1 h 42 min<br>
Bit rate mode : Constant<br>
Bit rate : 224 kb/s<br>
Channel(s) : 2 channels<br>
Channel layout : L R<br>
Sampling rate : 48.0 kHz<br>
Frame rate : 31.250 FPS (1536 SPF)<br>
Compression mode : Lossy<br>
Stream size : 164 MiB (2%)<br>
Language : Spanish<br>
Service kind : Complete Main<br>
Default : Yes<br>
Forced : No<br>
<br>
Text<br>
ID : 4<br>
Format : UTF-8<br>
Codec ID : S_TEXT/UTF8<br>
Codec ID/Info : UTF-8 Plain Text<br>
Duration : 1 h 41 min<br>
Bit rate : 56 b/s<br>
Count of elements : 1546<br>
Stream size : 42.2 KiB (0%)<br>
Title : Español (Latinoamerica)<br>
Language : Spanish<br>
Default : Yes<br>
Forced : No</div>
</div><br>
<div style="text-align: center">
<div class="bbCodeBlock bbCodeVfcHH HiddenContent">
<div class="attribution type">Hidden Content:</div>
<blockquote>You must reply before you can see the hidden data contained here.</blockquote>
</div></div>
<div class="messageTextEndMarker">&nbsp;</div>
</blockquote>
</article>]]></description>
                <author><![CDATA[tknobi]]></author>
                </item>

                </channel></rss>